<svg width="47" height="46" viewBox="0 0 47 46" fill="none" xmlns="http://www.w3.org/2000/svg">
<circle cx="23.672" cy="23.244" r="22.7559" fill="#121212"/>
<path d="M26.3581 20.3584C27.3043 20.3584 28.0721 21.1263 28.0721 22.0724V25.2555H28.0682V25.5004C28.0682 25.6952 27.9908 25.882 27.8531 26.0198C27.7153 26.1575 27.5285 26.2349 27.3336 26.2349C27.1388 26.2349 26.952 26.1575 26.8142 26.0198C26.6765 25.882 26.5991 25.6952 26.5991 25.5004V23.2967H26.603V22.0724C26.603 22.0075 26.5772 21.9452 26.5313 21.8993C26.4854 21.8533 26.4231 21.8275 26.3581 21.8275H20.9694C20.9044 21.8275 20.8421 21.8533 20.7962 21.8993C20.7503 21.9452 20.7245 22.0075 20.7245 22.0724V25.2555H20.7225V25.5004C20.7225 25.6952 20.6451 25.882 20.5074 26.0198C20.3696 26.1575 20.1828 26.2349 19.988 26.2349C19.7931 26.2349 19.6063 26.1575 19.4686 26.0198C19.3308 25.882 19.2534 25.6952 19.2534 25.5004V23.2967H19.2554V22.0724C19.2554 21.1263 20.0222 20.3584 20.9694 20.3584H26.3581ZM31.9859 22.0724V25.5004C31.9859 25.6952 32.0633 25.882 32.201 26.0198C32.3388 26.1575 32.5256 26.2349 32.7205 26.2349C32.9153 26.2349 33.1021 26.1575 33.2399 26.0198C33.3776 25.882 33.455 25.6952 33.455 25.5004V22.0724C33.455 21.6178 33.2745 21.1819 32.953 20.8604C32.6316 20.539 32.1956 20.3584 31.741 20.3584H28.4355C28.7714 20.7649 28.9908 21.2712 29.0408 21.8275H31.741C31.806 21.8275 31.8683 21.8533 31.9142 21.8993C31.9601 21.9452 31.9859 22.0075 31.9859 22.0724ZM13.8666 25.5004C13.8666 25.6952 13.944 25.882 14.0817 26.0198C14.2195 26.1575 14.4063 26.2349 14.6011 26.2349C14.796 26.2349 14.9828 26.1575 15.1206 26.0198C15.2583 25.882 15.3357 25.6952 15.3357 25.5004V22.0724C15.3357 22.0075 15.3615 21.9452 15.4074 21.8993C15.4533 21.8533 15.5156 21.8275 15.5806 21.8275H18.2867C18.3354 21.2879 18.5465 20.7757 18.892 20.3584H15.5806C15.126 20.3584 14.69 20.539 14.3686 20.8604C14.0472 21.1819 13.8666 21.6178 13.8666 22.0724V25.5004ZM23.6608 13.5024C24.4401 13.5024 25.1874 13.812 25.7385 14.363C26.2895 14.9141 26.5991 15.6614 26.5991 16.4407C26.5991 17.22 26.2895 17.9673 25.7385 18.5184C25.1874 19.0694 24.4401 19.379 23.6608 19.379C22.8815 19.379 22.1342 19.0694 21.5831 18.5184C21.0321 17.9673 20.7225 17.22 20.7225 16.4407C20.7225 15.6614 21.0321 14.9141 21.5831 14.363C22.1342 13.812 22.8815 13.5024 23.6608 13.5024ZM23.6608 14.9716C23.2712 14.9716 22.8975 15.1264 22.622 15.4019C22.3465 15.6774 22.1917 16.0511 22.1917 16.4407C22.1917 16.8303 22.3465 17.204 22.622 17.4795C22.8975 17.7551 23.2712 17.9098 23.6608 17.9098C24.0504 17.9098 24.4241 17.7551 24.6996 17.4795C24.9752 17.204 25.1299 16.8303 25.1299 16.4407C25.1299 16.0511 24.9752 15.6774 24.6996 15.4019C24.4241 15.1264 24.0504 14.9716 23.6608 14.9716ZM30.0271 14.4819C30.6765 14.4819 31.2992 14.7398 31.7584 15.199C32.2176 15.6582 32.4756 16.281 32.4756 16.9304C32.4756 17.5798 32.2176 18.2026 31.7584 18.6618C31.2992 19.121 30.6765 19.379 30.0271 19.379C29.3777 19.379 28.7549 19.121 28.2957 18.6618C27.8365 18.2026 27.5785 17.5798 27.5785 16.9304C27.5785 16.281 27.8365 15.6582 28.2957 15.199C28.7549 14.7398 29.3777 14.4819 30.0271 14.4819ZM30.0271 15.951C29.7673 15.951 29.5182 16.0542 29.3345 16.2379C29.1508 16.4215 29.0476 16.6707 29.0476 16.9304C29.0476 17.1902 29.1508 17.4393 29.3345 17.623C29.5182 17.8067 29.7673 17.9098 30.0271 17.9098C30.2868 17.9098 30.5359 17.8067 30.7196 17.623C30.9033 17.4393 31.0065 17.1902 31.0065 16.9304C31.0065 16.6707 30.9033 16.4215 30.7196 16.2379C30.5359 16.0542 30.2868 15.951 30.0271 15.951ZM17.2946 14.4819C17.944 14.4819 18.5668 14.7398 19.0259 15.199C19.4851 15.6582 19.7431 16.281 19.7431 16.9304C19.7431 17.5798 19.4851 18.2026 19.0259 18.6618C18.5668 19.121 17.944 19.379 17.2946 19.379C16.6452 19.379 16.0224 19.121 15.5632 18.6618C15.104 18.2026 14.846 17.5798 14.846 16.9304C14.846 16.281 15.104 15.6582 15.5632 15.199C16.0224 14.7398 16.6452 14.4819 17.2946 14.4819ZM17.2946 15.951C17.0348 15.951 16.7857 16.0542 16.602 16.2379C16.4183 16.4215 16.3151 16.6707 16.3151 16.9304C16.3151 17.1902 16.4183 17.4393 16.602 17.623C16.7857 17.8067 17.0348 17.9098 17.2946 17.9098C17.5543 17.9098 17.8034 17.8067 17.9871 17.623C18.1708 17.4393 18.274 17.1902 18.274 16.9304C18.274 16.6707 18.1708 16.4215 17.9871 16.2379C17.8034 16.0542 17.5543 15.951 17.2946 15.951ZM14.6011 27.2144C14.4063 27.2144 14.2195 27.2918 14.0817 27.4295C13.944 27.5673 13.8666 27.7541 13.8666 27.9489V28.4386C13.8666 29.4127 14.2535 30.3469 14.9423 31.0357C15.6311 31.7245 16.5653 32.1115 17.5394 32.1115H29.7822C30.7563 32.1115 31.6905 31.7245 32.3793 31.0357C33.0681 30.3469 33.455 29.4127 33.455 28.4386V27.9489C33.455 27.7541 33.3776 27.5673 33.2399 27.4295C33.1021 27.2918 32.9153 27.2144 32.7205 27.2144H14.6011ZM17.5394 30.6423C16.9974 30.6423 16.4743 30.4425 16.0703 30.0812C15.6663 29.7198 15.4097 29.2222 15.3494 28.6835H31.9722C31.912 29.2222 31.6553 29.7198 31.2513 30.0812C30.8473 30.4425 30.3242 30.6423 29.7822 30.6423H17.5394Z" fill="white"/>
</svg>
