<svg width="47" height="46" viewBox="0 0 47 46" fill="none" xmlns="http://www.w3.org/2000/svg">
<circle cx="23.672" cy="22.7559" r="22.7559" fill="#121212"/>
<g clip-path="url(#clip0_19_2)">
<path d="M31.8115 21.2492L24.2461 14.2891C24.0001 14.0628 23.6763 13.9403 23.3421 13.9473C23.008 13.9543 22.6895 14.0901 22.4532 14.3264L15.4953 21.2844L15.1382 21.6414V31.8989H21.8431V25.4988H25.5003V31.8989H32.2051V21.6114L31.8115 21.2492ZM23.3683 15.1661C23.3791 15.1661 23.3725 15.1684 23.3679 15.173C23.3631 15.1684 23.3576 15.1661 23.3683 15.1661ZM30.9861 30.6799H26.7193V25.4988C26.7193 25.1755 26.5909 24.8654 26.3623 24.6368C26.1337 24.4082 25.8236 24.2798 25.5003 24.2798H21.8431C21.5197 24.2798 21.2097 24.4082 20.9811 24.6368C20.7524 24.8654 20.624 25.1755 20.624 25.4988V30.6799H16.3573V22.1464L23.3683 15.1884C23.3688 15.1879 23.3689 15.1875 23.3693 15.1871L30.9861 22.1464V30.6799Z" fill="white"/>
</g>
<defs>
<clipPath id="clip0_19_2">
<rect width="19.5051" height="19.5051" fill="white" transform="translate(13.9189 13.0034)"/>
</clipPath>
</defs>
</svg>
