<svg width="47" height="46" viewBox="0 0 47 46" fill="none" xmlns="http://www.w3.org/2000/svg">
<circle cx="23.672" cy="22.7882" r="22.7559" fill="#121212"/>
<path d="M16.4019 13.1978C16.6069 13.1978 16.8035 13.2792 16.9484 13.4241C17.0934 13.5691 17.1748 13.7656 17.1748 13.9706V18.6079C17.1745 19.0876 17.3231 19.5555 17.5999 19.9473C17.8767 20.339 18.2683 20.6352 18.7205 20.7951V13.9706C18.7205 13.7656 18.802 13.5691 18.9469 13.4241C19.0918 13.2792 19.2884 13.1978 19.4934 13.1978C19.6984 13.1978 19.895 13.2792 20.0399 13.4241C20.1849 13.5691 20.2663 13.7656 20.2663 13.9706V20.7951C20.7185 20.6352 21.1101 20.339 21.3869 19.9473C21.6638 19.5555 21.8123 19.0876 21.812 18.6079V13.9706C21.812 13.7656 21.8935 13.5691 22.0384 13.4241C22.1833 13.2792 22.3799 13.1978 22.5849 13.1978C22.7899 13.1978 22.9865 13.2792 23.1314 13.4241C23.2764 13.5691 23.3578 13.7656 23.3578 13.9706V18.6079C23.358 19.4987 23.0503 20.3623 22.487 21.0524C21.9236 21.7425 21.1391 22.2168 20.2663 22.395V34.0654C20.2663 34.2704 20.1849 34.467 20.0399 34.6119C19.895 34.7568 19.6984 34.8383 19.4934 34.8383C19.2884 34.8383 19.0918 34.7568 18.9469 34.6119C18.802 34.467 18.7205 34.2704 18.7205 34.0654V22.395C17.8477 22.2168 17.0632 21.7425 16.4998 21.0524C15.9365 20.3623 15.6288 19.4987 15.629 18.6079V13.9706C15.629 13.7656 15.7105 13.5691 15.8554 13.4241C16.0003 13.2792 16.1969 13.1978 16.4019 13.1978ZM27.1897 15.4839C27.4355 15.2366 27.7122 15.0465 27.995 14.9213V22.4723H26.4493V17.0621C26.4493 16.5412 26.7182 15.9538 27.1897 15.4839ZM27.995 24.018V34.0654C27.995 34.2704 28.0765 34.467 28.2214 34.6119C28.3663 34.7568 28.5629 34.8383 28.7679 34.8383C28.9729 34.8383 29.1695 34.7568 29.3144 34.6119C29.4594 34.467 29.5408 34.2704 29.5408 34.0654V13.9706C29.5408 13.7656 29.4594 13.5691 29.3144 13.4241C29.1695 13.2792 28.9729 13.1978 28.7679 13.1978C27.7431 13.1978 26.7847 13.7017 26.0953 14.3895C25.4074 15.0789 24.9035 16.0373 24.9035 17.0621V23.2451C24.9035 23.4501 24.985 23.6467 25.1299 23.7916C25.2748 23.9366 25.4714 24.018 25.6764 24.018H27.995Z" fill="white"/>
</svg>
