<svg width="19" height="38" viewBox="0 0 19 38" fill="none" xmlns="http://www.w3.org/2000/svg">
<path d="M19 38C16.5049 38 14.0342 37.5085 11.729 36.5537C9.42383 35.5989 7.32928 34.1993 5.56497 32.435C3.80066 30.6707 2.40113 28.5762 1.44629 26.271C0.49145 23.9658 0 21.4951 0 19C0 16.5049 0.49145 14.0342 1.44629 11.729C2.40113 9.42383 3.80066 7.32928 5.56497 5.56497C7.32928 3.80066 9.42383 2.40113 11.729 1.44629C14.0342 0.491449 16.5049 -1.09065e-07 19 0L19 38Z" fill="url(#paint0_linear_15_64)"/>
<path d="M13 12L6 19L13 26" stroke="white" stroke-width="3" stroke-linecap="round"/>
<defs>
<linearGradient id="paint0_linear_15_64" x1="9.5" y1="0" x2="9.5" y2="38" gradientUnits="userSpaceOnUse">
<stop stop-color="#2E7ABF"/>
<stop offset="0.479167" stop-color="#1D92FE"/>
<stop offset="1" stop-color="#1AD6FF" stop-opacity="0.96"/>
</linearGradient>
</defs>
</svg>
