<svg width="46" height="46" viewBox="0 0 46 46" fill="none" xmlns="http://www.w3.org/2000/svg">
<circle cx="22.7559" cy="22.8719" r="22.7559" fill="#121212"/>
<path d="M13.2909 14.3233L11.2856 12.318M20.5459 10.4165L22.2186 12.0892L11.0498 23.258L9.37634 21.5853L20.5459 10.4165ZM33.8344 23.6923L35.5071 25.365L24.3383 36.5338L22.6648 34.8604L33.8344 23.6923ZM16.8644 10.7392L18.5378 12.4112L11.3717 19.5765L9.69902 17.9045L16.8644 10.7392ZM33.506 27.3682L35.178 29.0409L28.0127 36.2048L26.34 34.5321L33.506 27.3682ZM28.2457 29.2781L16.6377 17.6701L28.2457 29.2781ZM31.5926 32.625L33.5978 34.6302L31.5926 32.625Z" stroke="white" stroke-width="0.916" stroke-linecap="round" stroke-linejoin="round"/>
</svg>
